<svg id="Layer_1" data-name="Layer 1" xmlns="http://www.w3.org/2000/svg" viewBox="0 0 1000 1000"><defs><style>.cls-1{fill:#6200ee;}</style></defs><title>SwypeLogo</title><path d="M305.39,564.92a41.93,41.93,0,0,1-12.48-1.84A36.1,36.1,0,0,1,282,557.55a38.26,38.26,0,0,1-8.65-9,43.35,43.35,0,0,1-5.81-12.41l18-7.09a27.45,27.45,0,0,0,7,12.69q5,5,13,5a21.11,21.11,0,0,0,5.75-.78,17.16,17.16,0,0,0,5-2.27,11.17,11.17,0,0,0,3.48-3.76,10.52,10.52,0,0,0,1.27-5.25,12.69,12.69,0,0,0-1-5.11,11.89,11.89,0,0,0-3.33-4.25,30,30,0,0,0-6.1-3.83,92.21,92.21,0,0,0-9.29-3.83L295,515.42a47.08,47.08,0,0,1-8.29-3.83,36.45,36.45,0,0,1-7.59-5.82,28.81,28.81,0,0,1-5.61-8,24,24,0,0,1-2.19-10.43,26.7,26.7,0,0,1,2.34-11.13,27.26,27.26,0,0,1,6.66-9.08,31.41,31.41,0,0,1,10.36-6.1,39,39,0,0,1,13.4-2.2,38.58,38.58,0,0,1,13.27,2.06,32.58,32.58,0,0,1,9.5,5.25,29.37,29.37,0,0,1,6.31,7,33.82,33.82,0,0,1,3.55,7.23l-16.88,7.1a18.06,18.06,0,0,0-5.18-7.66q-3.76-3.4-10.28-3.41A17.49,17.49,0,0,0,294,479.32a8.91,8.91,0,0,0-4.11,7.59,9.6,9.6,0,0,0,4,7.73q4,3.19,12.62,6.17l6.39,2.13A74,74,0,0,1,324,507.83a34.55,34.55,0,0,1,8.65,6.6,26.74,26.74,0,0,1,5.54,8.72,30.93,30.93,0,0,1,1.91,11.28A27.76,27.76,0,0,1,337,548.12a29.31,29.31,0,0,1-8.16,9.43,35.43,35.43,0,0,1-11.2,5.53A42.92,42.92,0,0,1,305.39,564.92Z"/><path d="M346.52,461.09h20.29l15.74,59.29,2.27,10.93H386l3-10.93,14.61-45.67h17.87l14.75,45.67L439,531.16h1.13l2.13-10.78L457,461.09h20.29L450.36,562.65H431.92L416,513.72l-3-11.21h-1.13l-3,11.21-15.89,48.93H374.61Z"/><path d="M515.46,515.42l-34.18-54.33h22.84l20.28,33.62h1.13l19.58-33.62h23.12l-33.62,54.33v47.23H515.46Z"/><path d="M580.14,562.65V461.09h35.75a38.7,38.7,0,0,1,13.55,2.34,33.43,33.43,0,0,1,11,6.6,31.45,31.45,0,0,1,0,46.38,33.43,33.43,0,0,1-11,6.6,38.7,38.7,0,0,1-13.55,2.34h-16.6v37.3Zm36-55.46q7.51,0,11.35-4.25a14.22,14.22,0,0,0,3.83-9.79,15.44,15.44,0,0,0-.92-5.25,12.1,12.1,0,0,0-2.84-4.47,14.13,14.13,0,0,0-4.75-3.05,18,18,0,0,0-6.67-1.13H599.29v27.94Z"/><path d="M683.27,479.25v23.54H724V521H683.27V544.5h45.24v18.15H664.12V461.09h64.39v18.16Z"/><polygon class="cls-1" points="548.45 454.03 729.33 454.03 672.22 396.92 660.55 408.59 689.5 437.53 559.99 437.53 548.45 454.03"/></svg>